<?xml version="1.0" encoding="utf-8"?>
<!-- Generator: Adobe Illustrator 23.0.1, SVG Export Plug-In . SVG Version: 6.00 Build 0)  -->
<svg version="1.1" id="Layer_1" xmlns="http://www.w3.org/2000/svg" xmlns:xlink="http://www.w3.org/1999/xlink" x="0px" y="0px"
	 viewBox="0 0 502 334" style="enable-background:new 0 0 502 334;" xml:space="preserve">
<style type="text/css">
	.st0{display:none;fill:#FFFFFF;}
	.st1{display:none;fill:#EBF3FA;}
	.st2{fill:#CDE0FB;}
	.st3{fill:#FFC533;}
	.st4{fill:#C0D8FB;}
	.st5{fill:#EBF3FA;}
	.st6{fill:#210F6B;}
	.st7{fill:#FFB27D;}
	.st8{fill:#233862;}
	.st9{fill:#3000A1;}
	.st10{fill:#ED975D;}
	.st11{fill:#F9DDBF;}
	.st12{fill:#F2CCAA;}
	.st13{fill:#FF983B;}
	.st14{fill:#FFFFFF;}
	.st15{fill:#E8945B;}
	.st16{fill:#D9935C;}
	.st17{fill:#2B478B;}
</style>
<rect x="-116" y="164" class="st0" width="656" height="410"/>
<g>
	<path class="st1" d="M7,320.4c0,0-66.7-81.2-34.1-164.8c21.3-54.5,101-84.4,146-54.5c19.2,12.7,80.6,0.4,113.5-52.2
		C296.2-53.5,518.8,8.6,478.3,165.7c-19.6,76,59.7,78.8,19.3,154.8L7,320.4z"/>
	<path class="st2" d="M100.9,213.2c-5.1-12.6,15-22.8,15-22.8s25.9,9.1,29.7,6.9c3.8-2.2-20.6-12.1-20.6-12.1
		c6.2-5.8,29.7-10.7,29.7-10.7s15.2,22.2,18.3,19.1c3.1-3.1-14.5-18.9-14.5-18.9c8-3,19.9-0.1,19.9-0.1c17.1,6.6,7.7,28.2,7.7,28.2
		s5.4,7.6,16.5,12.6l0,0c0,0,2.2,0.8,5.3,2.6l-1.8,1.4c-0.5-0.4-1-0.7-1.5-1c0,0,0,0,0,0c0,0,0,0,0,0c-0.3-0.2-0.8-0.4-1.4-0.7
		c0,0,0,0,0,0c0,0,0,0,0,0c-1.4-0.6-2.3-1.2-3-1.5c0,0,0,0,0,0c-4.2-2.1-9.9-4.7-12.1-4.4c0,0,0-0.4-0.2-1.1
		c0.1,0.4,0.2,0.7,0.2,1.1c1.9,8.9-12.5,21.6-22.3,26.3c-9.8,4.7-7.9-0.5-6.3-7.9c1.6-7.4,12-13.7,13.6-17.3c1.7-3.7-3.6-2-9,2.7
		c-5.3,4.8-3.8,12.6-12.3,20.4c-8.5,7.8-28.6-4-28.6-4c7.8-2.9,16.5-15,15.2-17.5c-1.2-2.5-17.8,10.5-20.9,11.8
		C114.6,227.5,106.1,225.8,100.9,213.2z"/>
	<path class="st2" d="M232.2,57.1c7.5-10.4,25.7,0.6,25.7,0.6s5.6,25.3,9.3,27.2c3.7,1.9-0.6-22.6-0.6-22.6
		c7.8,2.1,23.4,18.5,23.4,18.5s-10.1,23.2-6.1,24.2c4,1,7.9-21,7.9-21c6.4,4.9,10,15.9,10,15.9c3.3,17-18.7,20.3-18.7,20.3
		s-3.3,8.1-1.8,19.5v0c0,0,0.5,2.2,0.5,5.6l-2-0.7c0-0.6,0.1-1.2,0-1.7c0,0,0,0,0,0c0,0,0,0,0,0c0-0.4-0.1-0.9-0.1-1.5c0,0,0,0,0,0
		c0,0,0,0,0,0c-0.2-1.4-0.2-2.4-0.3-3.2c0,0,0,0,0,0c-0.4-4.4-1.2-10.2-2.6-11.9c0,0,0.3-0.2,0.8-0.7c-0.2,0.2-0.5,0.5-0.8,0.7
		c-6.1,6-23.5,0.8-32.2-4.7c-8.7-5.5-3.6-6.6,3.1-9c6.7-2.4,16.9,2.7,20.7,2.2c3.8-0.5-0.2-3.9-6.6-5.8c-6.5-1.9-12,3.2-22.5,0.4
		c-10.5-2.9-11.1-24.9-11.1-24.9c6.2,4.8,20.2,5.7,21.6,3.4c1.4-2.2-17.3-9-19.9-10.8C227.5,75.2,224.6,67.5,232.2,57.1z"/>
	<path class="st2" d="M377.2,297.4c18.6-3.8,14.8-35,14.8-35s-30.7-22.9-31.1-29.1c-0.4-6.1,30.1,14.5,30.1,14.5
		c1.9-11.7-10.7-42.7-10.7-42.7s-37.4-0.4-36.3-6.4c1.1-6,33.1,2,33.1,2c-2.7-11.6-15.4-23.1-15.4-23.1
		c-20.9-14.7-38.6,12.9-38.6,12.9s-13-0.4-27.3-9.3l0,0c0,0-2.6-2-7.2-4.1l-0.2,3.1c0.8,0.3,1.6,0.6,2.4,1c0,0,0,0,0,0c0,0,0,0,0,0
		c0.5,0.2,1.1,0.6,1.9,1c0,0,0,0,0,0c0,0,0,0,0,0c1.8,1.1,3.1,1.8,4.1,2.3c0,0,0,0,0,0c5.7,3.2,13,7.8,14.5,10.6
		c0,0,0.5-0.3,1.5-0.6c-0.5,0.2-1,0.4-1.5,0.6c-11.8,4.6-15.3,31.2-13.2,46.2c2.1,15,6.7,8.8,14,1.2c7.3-7.6,6.5-24.4,9.5-29.2
		c3-4.8,5.2,2.6,3.8,12.5c-1.4,9.9-11.6,14.2-14.1,30.1c-2.5,15.9,26.8,29.9,26.8,29.9c-2.7-11.3,4.6-30.7,8.4-31.2
		c3.9-0.5,1.7,28.8,2.5,33.4C350,292.7,358.7,301.2,377.2,297.4z"/>
	<path class="st3" d="M337.4,102.4H157.1c-9.2,0-16.6,7.4-16.6,16.6v89.2c0,9.2,7.4,16.6,16.6,16.6h106.3l28.9,53.5v-53.5h45.1
		c9.2,0,16.6-7.4,16.6-16.6V119C354,109.9,346.5,102.4,337.4,102.4z"/>
	<path class="st4" d="M353.7,30.4h108.1c5.5,0,10,5.2,10,9.5v37.7c0,6.5-4.5,10.3-10,10.3H398l-17.4,25.2V88h-27
		c-5.5,0-10-3.5-10-7.8V41.8C343.7,34.6,348.2,30.4,353.7,30.4z"/>
	<path class="st5" d="M146.8,14.5H66c-4.1,0-7.4,3.3-7.4,7.4v40c0,4.1,3.3,7.4,7.4,7.4h47.6l13,24v-24h20.2c4.1,0,7.4-3.3,7.4-7.4
		v-40C154.3,17.8,150.9,14.5,146.8,14.5z"/>
	<g>
		<path class="st6" d="M208.6,95.9c-2.8,4.8-6.2,6.7-6.2,6.7h-14.5C187.9,102.6,210.7,92.3,208.6,95.9z"/>
		<g>
			<path class="st7" d="M197.5,133.2c-0.4,0.4-0.4,0.9-0.2,1.4c0,0,0,0,0,0c0.3,1,1.5,2,2.8,3.1c0.2,0.1,0.3,0.3,0.5,0.4
				c0,0,0.1,0.1,0.1,0.1c0,0,0.1,0,0.1,0.1c1.2,1.1,0.8,1.4,3,3.7c2.5,2.6,4.3,2.7,4.8,2.4c0.4-0.2-0.4-1.6-1.4-3.2
				c0-0.1-0.1-0.2-0.1-0.2c-0.1-0.2-0.3-0.4-0.4-0.6c-1.1-1.9-0.8-2.8-0.6-5.6c0.2-2.3,3.6-12.8,3.6-12.8l-4.9-0.8
				c0,0-1.5,8.3-3.1,9.6c-0.9,0.7-1.8,0.7-2.7,1.2c-0.1,0-0.1,0.1-0.2,0.1C198.3,132.4,197.9,132.8,197.5,133.2z"/>
			<path class="st8" d="M197.5,133.2c-0.4,0.4-0.4,0.9-0.2,1.4c0,0,0,0,0,0c0.4,1,1.5,2,2.8,3.1c0.2,0.1,0.3,0.3,0.4,0.4
				c0,0,0.1,0.1,0.1,0.1c0,0,0.1,0,0.1,0.1c1.2,1.1,0.8,1.4,3,3.7c2.5,2.6,4.3,2.7,4.8,2.4c0.4-0.2-0.4-1.6-1.4-3.2
				c-0.5-0.2-2.8-1.1-4.5-3.3c-1.5-1.9-2.5-4.4-3.6-5.9c-0.1,0-0.1,0.1-0.2,0.1C198.3,132.4,197.9,132.8,197.5,133.2z"/>
			<path class="st7" d="M236.6,130.2c0.3,1.5,2.4,1.2,4.8,0.7c2.4-0.6,1.8,0.1,5.2-0.3c3.4-0.4,4.4-1.6,4.5-2.1
				c0.1-0.4-1.6-0.6-3.4-0.8c-0.2,0-0.5-0.1-0.7-0.1c-2-0.3-3.5-1.6-5.4-2.6c-1.7-1-4.4-5.2-4.4-5.2l-4.7,0.4c0,0,2.4,3.7,3.4,5.3
				c0.6,0.9,0.5,2.2,0.5,3.2C236.5,129.1,236.5,129.6,236.6,130.2z"/>
			<path class="st8" d="M241.4,130.8c2.4-0.6,1.8,0.1,5.2-0.3c3.4-0.4,4.4-1.6,4.5-2.1c0.1-0.4-1.6-0.6-3.4-0.8l0,0
				c0,0-2,1.4-4.9,1.5c-2.3,0.1-4.7-0.6-6.3-0.6c0,0.5-0.1,1.1,0,1.6C236.9,131.7,239,131.4,241.4,130.8z"/>
			<path class="st6" d="M218.8,100.4l-4.4,11.7l-5.7,15.3c0,0-1.5,0.1-3-0.3c-1.4-0.4-2.9-1.4-2.9-1.4s1.6-16.4,4.5-25.8
				c0.8-2.4,1.6-4.4,2.5-5.5C214.4,89,218.8,100.4,218.8,100.4z"/>
			<path class="st9" d="M214.3,81.8c-2.9-0.9-11,0.3-19.1,1.9l-1.7-2.8l-17.6-1.4c0,0-5.8,12.9-2.6,21.1c0.5,1.2,1.6,1.7,3.2,1.7
				c0,0,0,0,0,0c0,0,10.5,0.3,13.9,0.3c8.8,0,18.6-6,19.8-6.3c2.1-0.4,2.9,3.7,5,8.1c2.1,4.4,19.5,19.3,19.5,19.3s2.7,0,3.8-0.4
				c1.2-0.4,1.6-1,1.6-1S220.8,83.9,214.3,81.8z"/>
			<path class="st9" d="M191.6,29.1c-1.3-0.8-2.6-0.9-3.4-0.9c-0.6,0-1.1,0-1.7-0.1c-6.7-0.9-10.7,8.8-10.9,11.8
				c-0.4,5.4-3.3,6.3-7.3,9.6c-8.1,6.8-5.7,14.7-1.3,17.7c2.7,1.8,7.3,0,7.3,0c0.1,0,12.8-7.1,19.1-10.6
				C202.8,55.2,195.4,31.3,191.6,29.1z"/>
			<path class="st7" d="M188.1,53.6c0,0-3.1,1.1-5.2,0.2c-2-0.9-3.4-4.1-3.4-4.1c0.9,0,1.9-0.8,2.6-5.9l0.4,0.1l6.4,2.3
				c0,0-0.5,2-0.8,4C187.9,51.8,187.8,53.4,188.1,53.6z"/>
			<path class="st10" d="M188.9,46.2c0,0-0.5,2-0.8,4c-3.7-0.7-5.1-4.3-5.6-6.3L188.9,46.2z"/>
			<path class="st7" d="M189.9,48.2c0,0-8.7-1.2-7.9-6.6c0.8-5.4,0.2-9.2,5.8-8.7c5.6,0.5,6.4,2.8,6.6,4.6
				C194.5,39.4,192.2,48.4,189.9,48.2z"/>
			<path class="st9" d="M194,34.5c0,0-5.6,4.8-9.4,5.2c-3.8,0.4-5.2-0.8-5.2-0.8s2.2-1.9,3.6-4.9c0.4-0.9,1.2-1.5,2.2-1.6
				C187.9,32.2,193,32.1,194,34.5z"/>
			<path class="st8" d="M190.5,34.1c0,0,1.9,1.8,2.5,3.2c0.6,1.3,0.7,4.4,0.3,5.6c0,0,2.9-5.7,1.3-8.4
				C192.8,31.5,190.5,34.1,190.5,34.1z"/>
			<path class="st11" d="M195.5,66.5c-0.3,17.7-0.1,14-2,15.7c-0.5,0.4-1.8,0.6-3.5,0.8c-5.4,0.4-15-0.5-15.3-1.5
				c-1.3-3.5-0.4-4.5-1.4-9.9c-0.1-0.6-0.2-1.2-0.4-1.8c-0.9-3.6-1.7-4.9,1.4-10.7c2.8-5.3,5.7-9.6,6-9.5c7.4,4.4,8,0.7,8,0.7
				S195.6,57.9,195.5,66.5z"/>
			<path class="st9" d="M214.4,112.1l-5.7,15.3c0,0-1.5,0.1-3-0.3c-1.4-0.4-2.9-1.4-2.9-1.4s1.6-16.4,4.5-25.8L214.4,112.1z"/>
			<path class="st11" d="M188.2,50.2c0,0,7.6,1.3,8.5,4.6c0.9,3.3,6.1,22.5,6.1,22.5s-3.9,0.7-5.7-1.1c-1.8-1.8-6.2-16.6-6.2-16.6
				L188.2,50.2z"/>
			<path class="st12" d="M190,82.9c-5.4,0.4-15-0.5-15.3-1.5c-1.3-3.5-0.4-4.5-1.4-9.9l2.6-7.4c0,0-0.4,8.2,2,10.4
				c2.4,2.2,9.9,4.2,11.1,6C189.5,81.4,189.9,82.2,190,82.9z"/>
			<path class="st7" d="M183.7,79.5c0,0,5.4-1.2,6.2-0.7c0.9,0.5,3,2.2,3.2,2.8c0.3,0.6-1.9-0.5-2.6-0.6c-0.5-0.1-1.7,0.3-2.3,0.5
				c-2.5,0.8-4.1,0.4-4.1,0.4L183.7,79.5z"/>
			<path class="st11" d="M180.2,49.5c0,0-7.2,0.4-9.7,3.9C167,58.3,160,79.1,164,81.9c4.5,3.1,20.4,0.8,20.4,0.8s0.5-2.5-0.2-3.7
				c-0.7-1.2-12.7-3.1-13.3-3.7c-0.6-0.6,6.9-10.8,6.9-12.4S180.2,49.5,180.2,49.5z"/>
			<path class="st7" d="M190.2,80.3c0,0,1.1,1.4,1.5,1.6c0.4,0.2,0.6,0.1,0.6,0.1l-0.8-1.4L190.2,80.3z"/>
			<path class="st7" d="M190,78.8l3.3,1.6c0,0-0.1,0.2-0.5,0.2c-0.4,0-1.4-0.4-1.4-0.4L190,78.8z"/>
		</g>
		<g>
			<g>
				<polygon class="st3" points="191.7,84.1 217.5,84.1 225.3,64.8 199.5,64.8 				"/>
				<polygon class="st13" points="217.8,83.3 183.7,83.3 183.7,84.1 217.5,84.1 				"/>
			</g>
			<path class="st14" d="M211,74.4c0.2-0.7-0.2-1.2-0.9-1.2s-1.4,0.5-1.6,1.2c-0.2,0.7,0.2,1.2,0.9,1.2S210.8,75.1,211,74.4z"/>
		</g>
	</g>
	<g>
		<g id="man_1_">
			<path class="st7" d="M119.9,158.8c-0.9,2.4-2.4,5.1-4,5.8c-1.8,0.8-2.6,1.9-2.6,1.9l-1.5-0.8l-1.7-1c0,0,0-0.2,0.1-0.5
				c0.1-0.3,0.2-0.8,0.4-1.2c0,0,0.5-0.7,0.2-1.6c-0.3-0.9-0.3-2.2,0.3-3c0.6-0.8,1.1-2.8,1.4-2.8c0.8,0.1-0.4,2.9-0.1,3.4
				c0.3,0.5,0.7,0.3,0.8,0.3c0,0,0,0,0,0c2.3-1,5.1-6.4,6.3-5.7C120.1,153.8,120.3,157.8,119.9,158.8z"/>
			<g>
				<path class="st9" d="M112,162.1l2.9,2c0.2,0.1,0.5,0.1,0.6-0.1l7.3-10.4c0.1-0.2,0.1-0.5-0.1-0.6l-2.9-2
					c-0.2-0.1-0.5-0.1-0.6,0.1l-7.3,10.4C111.7,161.7,111.8,161.9,112,162.1z"/>
				<path class="st6" d="M114.6,163.9l1.7,1.2c0.2,0.1,0.4,0.1,0.5-0.1l7.5-10.6c0.1-0.2,0.1-0.4-0.1-0.5l-1.7-1.2
					c-0.2-0.1-0.4-0.1-0.5,0.1l-7.5,10.6C114.4,163.6,114.5,163.8,114.6,163.9z"/>
			</g>
			<path class="st6" d="M70.9,147.1c0,0,14.6,25.4,19.9,30.1l19.4-14.4c0,0,2.8,0.9,4,3.7c0,0-11.8,24-23.4,25
				c-11.6,1-27.9-28.7-27.9-28.7L70.9,147.1z"/>
			<g>
				<path class="st6" d="M37.9,320h-8.4c-1.1-0.6-2-1.9-2.3-3.9c-0.4-2.7-3.5-4.2-4.1-6.4c-0.7-2.2,2.7-5.3,2.7-5.3l0.6-0.7l0.6-0.8
					l5.6,1.3c0,0,0.1,1.3,0.2,3c0.1,1.2,0.1,2.6,0,3.9c-0.2,3,0.8,6.1,3.5,6.7C38.2,318.2,38.1,319.4,37.9,320z"/>
				<path class="st6" d="M86.8,320H67.5c-0.9-1.1-0.6-5.3-0.4-6.7c0-0.3,0-0.4,0-0.4s6.6-5.3,7.5-1.2c0,0.1,0.1,0.2,0.1,0.4
					c1.1,3.8,6.2,5.5,9.2,6C85.8,318.3,86.5,319.3,86.8,320z"/>
				<path class="st3" d="M83.1,212.5c0,0-1,12.5-2.2,27.4c-1.6,20.3-3.5,45.3-3.7,50.1c-0.3,8.2-1.6,21.4-1.6,21.4s-3.1,3.1-9.4,1.8
					c0,0-5.6-18.8-7.2-38.6c0-0.3,0-0.7-0.1-1c-1.5-20.2-3.8-62.8-3.8-62.8L83.1,212.5z"/>
				<path class="st13" d="M83.1,212.5c0,0-1,12.5-2.2,27.4l-21.9,34.6c0-0.3,0-0.7-0.1-1c-1.5-20.2-3.8-62.8-3.8-62.8L83.1,212.5z"
					/>
				<path class="st3" d="M78.6,214c0,0-18,45.1-29.8,66.3c-11.8,21.2-15.5,27.1-15.5,27.1s-6.8-2.7-7.4-4.6c0,0,4.5-40.9,12.4-50.9
					c4.5-5.6,9.7-22.6,10-28.5c0.2-5.9,1.6-17.6,1.6-17.6L78.6,214z"/>
			</g>
			<path class="st7" d="M74.1,148.2c-7,2.2-19.2-3.8-19.2-3.8s6.5-4.9,6.1-15l5.4,4.4l3.7,3c0,0,0,1.8-0.4,4.8
				c-0.1,0.8-0.2,1.7-0.4,2.7C72.4,146,74.1,148.2,74.1,148.2z"/>
			<path class="st10" d="M70.2,136.8c0,0,0,1.8-0.4,4.8c-4.1-0.7-8.7-7.3-8.7-7.3c2.1-0.6,3.9-0.7,5.5-0.5L70.2,136.8z"/>
			<path class="st7" d="M72.3,136.7c0,0-11.6,1.9-12.7-5.3c-1.1-7.3-3.3-11.9,4-13.4c7.4-1.5,9.2,1,10.2,3.3
				C74.8,123.6,75.3,136,72.3,136.7z"/>
			<path class="st9" d="M83.9,213.5c-0.2,0.2-0.5,0.3-0.7,0.3c-2.6,0-10.3,1.4-16.9,0.8c-5.5-0.5-10.4-2.2-15.6-4.5
				c-0.7-0.3-2.3-1.2-2.3-1.9c0-0.8,0.1-2.1,0.2-3.6c0.4-5.4,1-14.7,0.4-25.3c-0.1-2-0.2-4-0.2-5.9c-0.1-14.5,2.8-27.2,8.6-31.6
				c0.5-0.4,3.5,1.1,6.3,2.5c2.6,1.3,5.1,1.4,7.6,0.9l2.4,2.1c3,2.7,6.2,6.5,7.6,12.1c1.2,4.8,1.9,13.5,2.3,22.5
				c0.2,4.1,0.3,8.2,0.4,12.1v0.1c0,0.4,0,0.8,0,1.2C84.2,205.4,84.1,213.4,83.9,213.5z"/>
			<path class="st6" d="M48.7,204.5c0.4-5.4,1-14.7,0.4-25.3c-0.1-2-0.2-4-0.2-5.9c2.4-5.8,4.4-10.1,4.4-10.1h6.1
				C59.3,163.2,63.8,193.5,48.7,204.5z"/>
			<g>
				<path class="st8" d="M17.6,238.9l25.9,3.7c3.4,0.5,6.5-1.9,7-5.2l1.6-11.2c0.5-3.4-1.9-6.5-5.2-7L21,215.5
					c-3.4-0.5-6.5,1.9-7,5.2l-1.6,11.2C11.9,235.3,14.3,238.4,17.6,238.9z"/>
				<path class="st9" d="M48.3,222.5L48.3,222.5c-0.7-1.8-2.3-3.3-4.3-3.7h0c0,0,0,0,0,0c-0.2,0-0.4-0.1-0.6-0.1l-5.1-0.7l0.3-2.4
					c0.1-0.5-0.1-1.1-0.4-1.5c-0.3-0.4-0.8-0.7-1.3-0.8l-1.3-0.2l-5.4-0.8l-1-0.1c-1.1-0.2-2.2,0.6-2.3,1.7l-0.3,2.4l-8.9-1.3
					c-3.4-0.5-6.5,1.9-7,5.3L9,231.6c-0.5,3.4,1.9,6.5,5.3,7l25.8,3.7c0.5,0.1,0.9,0.1,1.3,0h0c0,0,0,0,0,0c0.7-0.1,1.4-0.2,2-0.5
					c1.9-0.8,3.3-2.6,3.7-4.8l1.6-11.3C48.8,224.6,48.7,223.5,48.3,222.5z M28.1,214c0-0.3,0.3-0.6,0.6-0.6c0.1,0,0.2,0,0.2,0
					l1.1,0.2l4.3,0.6l2.3,0.3c0.4,0.1,0.7,0.4,0.6,0.9l-0.3,2.4l-9.2-1.3L28.1,214z"/>
			</g>
			<path class="st7" d="M37.3,205.6c0,0-1.4,1.8-1.4,2.5c-0.4,4.9,1.9,5.6-3.9,8.3c0,0-2.5,0.9-2.5-1s1.7-2,1.4-4.6
				c-0.4-3.1-0.3-3.1,1.7-4.8l1.3-2.2L37.3,205.6z"/>
			<path class="st9" d="M33.9,206.9c2.2,0.4,4.5,0.3,4.5,0.3s6.5-20,7.3-21.9c0.8-1.8,19.3-23.5,19.3-23.5l-7.7-19.2
				c0,0-19.9,33.3-21.9,38c-3.3,7.7-4.5,25-4.5,25S32.1,206.6,33.9,206.9z"/>
			<path class="st9" d="M59.6,130.6c0,0,1.2-0.2,1-1.8c-0.2-1.6-0.2-3.8,1.1-3.4c1.3,0.4,1.4,1.5,1.9,0.8c0.5-0.6,0.6-3.3,4.5-3.4
				c4-0.2,5.6,1.2,7.4,0.4c1.8-0.8,1.9-3.6,1.9-3.6s-0.5,1-1.3,1.3c0,0,3.1-4.2-0.5-7.1c-3.6-2.9-7.2-1-9.3-0.9
				c-4.5,0.3-7.5,0.5-9,3.5C56.1,119.5,56.7,127.8,59.6,130.6z"/>
			<path class="st7" d="M35.2,207.7c0,0,1.3,1.4,1.4,1.9c0.3,1.8,0.9,2.6,0.6,2.8c-0.6,0.4-1.5-0.9-1.9-2.1
				C34.8,209.1,35.2,207.7,35.2,207.7z"/>
		</g>
	</g>
	<g>
		<g>
			<g>
				<g>
					<path class="st7" d="M376.1,169.9c0-0.1,1.8-3.9,1.2-4.2c-0.6-0.3-1.6-0.2-1.7,0.4C375.5,166.8,376.1,169.9,376.1,169.9z"/>
					<path class="st9" d="M403.3,123.1c0,0,10.7-12.8,16.3-4.6c0,0,4.2,1.7,5.7,8.9c1.6,7.3-3.3,12.9-5.8,11.5
						c-1.6-0.9-2.8,1.9-2.8,1.9L403.3,123.1z"/>
					<path class="st7" d="M390,191.4c-8.5-3.1-16.7-17.7-16.7-17.7l2.7-1.9c2.2,3.3,12.3,9.5,12.3,9.5c0.2-2.7,0.6-5.2,1-7.5
						c2.8-15.4,9.2-19.9,10.9-20.9c0.3-0.2,0.4-0.2,0.4-0.2s0,0.1,0,0.3c0,0.5-0.1,1.4-0.2,2.7C399.7,165.3,397.1,194,390,191.4z"/>
					<path class="st9" d="M418.4,117.2c0,0,1.4-5.7,9.9-3.9c0,0-4-0.5-5.1,1c0,0,3.2-1.5,5.2-0.2c2,1.2,2.3,5.4,2,6.6
						c-0.3,1.3-2.5,5-4,5c-1.5,0-3.2-1.3-3.2-1.3L418.4,117.2z"/>
					<path class="st7" d="M431.1,207.1c-4.2-9.4-6.2-12.1-6.3-15c-0.1-2.3,1.1-4.9,3.3-11.1c0.5-1.5,0.9-3,1.1-4.5
						c1.8-11.9-5.1-24.8-9.4-25.7c-1.2-0.3-3.2-4.6-3.2-11.6l-0.5,0.1l-9,1.8c0,0,0.2,2.8,0.2,5.5c0,2.2-0.1,4.3-0.6,4.6
						c-0.7,0.1-1,0.1-1,0.1s-7.5,10.5-8.2,20.2c-0.6,9.7,6,14-0.1,33.4C391.2,224.8,433.4,212.3,431.1,207.1z"/>
					<path class="st15" d="M407.1,141.1c0,0,0.2,2.8,0.2,5.5c5.1-0.1,7.7-4.8,8.8-7.3L407.1,141.1z"/>
					<path class="st9" d="M417,138.4c0,0,2.6-4.2,3.3-7.8c0.5-2.6-0.8-12-10.4-10.7c0,0-2.8,0.3-5.4,2c-2.1,1.4-5,4.4-1.7,12.7
						l0.9,2.8L417,138.4z"/>
					<path class="st7" d="M405.4,143.7c0,0,12,0.2,12-7.3c0-7.5,1.6-12.4-6.1-12.9c-7.6-0.4-9.1,2.4-9.7,4.9
						C400.9,130.9,402.3,143.4,405.4,143.7z"/>
					<path class="st9" d="M405.8,123.4c0,0,3.3,8.7,8.3,10c5,1.3,7.2-0.1,7.2-0.1s-3.9-3.1-4.7-8.4
						C416.7,124.9,408.3,119.2,405.8,123.4z"/>
					<path class="st9" d="M406.6,124.1c0,0-2.4,2-3,3.8c-0.6,1.9-0.9,5.8-2,5.7c0,0-2.5-5.9,0.3-9.3
						C404.8,120.7,406.6,124.1,406.6,124.1z"/>
					<path class="st6" d="M420.5,297.4c-3,12-7.5,21.1-7.5,21.1l-3.9-0.3c0,0,1.9-9.2,1.8-21.6c-0.1-8.7-1.2-19-4.6-28.8
						c-11.8-33.7-9.9-58.2-9.9-58.2l22.2,2.6l1,0.1c0.1,10.2,0.4,24,0.6,34.9c0.2,9.7,0.4,17,0.4,17
						C424.8,273.4,423.2,286.3,420.5,297.4z"/>
					<path class="st7" d="M446.6,217.1l-3.6,1.1c0,0-11.8-19.7-12.9-24.8c-0.4-1.7-1.2-5-2.2-8.7c-2.1-7.7-4.8-17.2-4.8-17.2
						l-0.9-3.8l-3-13.1c0,0,5.8,0.6,9.2,2c1.1,0.5,2,1,2.3,1.7c2.5,5.5,5,19.2,6.7,29c1,5.5,1.7,9.7,2.1,10.6
						C440.5,196.5,443.8,210.3,446.6,217.1z"/>
					<path class="st9" d="M433.2,295.4c-1.3,13.6-6.9,22.4-6.9,22.4l-1.9,1.4c0,0-1.8-9.6-3-21c-1.2-10.8-2.9-22.3-4.7-25.8
						c-7.4-13.9-9.6-66.4-9.6-66.4l22.5-1.1c2.3,3.8,3.2,10,3.5,17.1c0.6,17.9-3.6,41.3-4.2,44.6c0,0,0,0,0,0c0,0.3,0,0.5,0.1,0.8
						C433.4,276.3,434,286.5,433.2,295.4z"/>
					<path class="st9" d="M406.2,124.4c0,0,2.3,9.2,8.7,12.1c0,0-6.3-5.6-6.9-11.7C407.4,118.7,406.2,124.4,406.2,124.4z"/>
					<path class="st3" d="M433.9,213.9c0,0.8,0,1.4-0.1,1.8c-0.5,1.5-2.1,2.2-6.1,1.8c-2.4-0.3-3.5-4.3-4-7.8
						c-1.5,5-3.5,7.8-6.1,8.3c-3.9,0.9-23.3,3.2-24.6-6c-1.4-10.2,2.8-28.2,3-37.9c-0.6-3.4-0.8-6.4-0.7-9
						c0.2-6.9,2.2-10.8,3.8-12.3c0.4-0.3,0.9-0.6,2.7-0.9c0.9-0.2,2.2-0.3,3.9-0.6c0,0,0.7-0.1,0.7-0.1c-0.3,0.6-4.7,7.3-4.4,9
						c0.4,1.8,16,0.2,17.1-0.8s2.8-8.5,2.8-8.5s5.5,0.6,8.2,2.6c0,0,0,0,0,0c0.3,0.2,0.6,0.5,0.7,0.7c2.9,5.5,5.8,19.4,7.8,29.2
						c-4.9,2.7-9.2,1.9-10.5,1.5C429.7,196.5,433.6,208.7,433.9,213.9z"/>
					<path class="st7" d="M376,171.9c0-0.4,0.3-5.7-0.6-6.8c-1-1.1-2.9-2.7-3.5-2.7c-0.6,0-3,3.2-2.3,5.7c0.7,2.4,3.7,5.7,3.7,5.7
						L376,171.9z"/>
					<g>
						<path class="st3" d="M379.1,165.7l-3,0.9c-0.9,0.3-1.8-0.2-2.1-1.1l-2.4-8c-0.3-0.9,0.2-1.8,1.1-2.1l3-0.9
							c0.9-0.3,1.8,0.2,2.1,1.1l2.4,8C380.5,164.5,380,165.5,379.1,165.7z"/>
						<path class="st13" d="M379,165.8l-5,1.5c-0.3,0.1-0.7-0.1-0.8-0.4l-3-10c-0.1-0.3,0.1-0.7,0.4-0.8l5-1.5
							c0.3-0.1,0.7,0.1,0.8,0.4l3,10C379.5,165.3,379.3,165.7,379,165.8z"/>
					</g>
					<path class="st7" d="M433.2,295.4c-1.3,13.6-6.9,22.4-6.9,22.4l-1.9,1.7c0,0-1.7-10-3-21.4
						C422.7,298.3,428.6,298.5,433.2,295.4z"/>
					<path class="st16" d="M420.5,297.4c-3,12-7.5,21.1-7.5,21.1l-3.9-0.3c0,0,1.9-9.2,1.8-21.6C412.1,297.3,414.9,298,420.5,297.4z
						"/>
					<g>
						<path class="st6" d="M415.2,321.8h-2.5c-0.8-0.1-1.5-0.4-2.3-0.5c-1.3-0.2-1.9,0.4-2,0.5c0,0,0,0,0,0h-10.7
							c-0.3-0.4,0-1.3,0.2-1.9c0.2-0.4,0.5-0.8,1-0.9c1.1-0.3,3.4-0.6,5.4-2.5c1.2-1,5.6-3.8,5.6-3.8l0,0c0.1,0,0.6,0.1,2.6,1.8
							c1,0.9,2.8-1.2,2.8-1.2s0.3,0.3,0.6,0.8c0.2,0.4,0.3,1,0.2,1.6c-0.2,1,0.4,2.8,0.8,4c0.2,0.7,0.5,1.3,0.5,1.3
							S417.4,321.5,415.2,321.8z"/>
						<path class="st9" d="M415.8,314.1c-0.6,0.4-1.9,1.3-2.7,1.4c-1.1,0.1-3.3-2.8-3.3-2.8l0,0c0.1,0,0.6,0.1,2.6,1.8
							c1,0.9,2.8-1.2,2.8-1.2S415.5,313.6,415.8,314.1z"/>
						<path class="st9" d="M415.2,321.8h-2.5c-0.8-0.1-1.5-0.4-2.3-0.5c-1.3-0.2-1.9,0.4-2,0.5c0,0,0,0,0,0h-10.7
							c-0.3-0.4,0-1.3,0.2-1.9c0.3-0.3,0.4,1.3,0.6,1.5c0.2,0.2,8.7,0.1,9.2-0.3c0.5-0.4,2-1,4-0.5c1.8,0.4,4.4-0.7,5.1-1
							c0.2,0.7,0.5,1.3,0.5,1.3S417.4,321.5,415.2,321.8z"/>
					</g>
					<g>
						<path class="st6" d="M428.6,321.8h-2.5c-0.8-0.1-1.5-0.4-2.3-0.5c-1.3-0.2-1.9,0.4-2,0.5c0,0,0,0,0,0H411
							c-0.3-0.4,0-1.3,0.2-1.9c0.2-0.4,0.5-0.8,1-0.9c1.1-0.3,3.4-0.6,5.4-2.5c1.2-1,5.6-3.8,5.6-3.8l0,0c0.1,0,0.6,0.1,2.6,1.8
							c1,0.9,2.8-1.2,2.8-1.2s0.3,0.3,0.6,0.8c0.2,0.4,0.3,1,0.2,1.6c-0.2,1,0.4,2.8,0.8,4c0.2,0.7,0.5,1.3,0.5,1.3
							S430.8,321.5,428.6,321.8z"/>
						<path class="st9" d="M429.2,314.1c-0.6,0.4-1.9,1.3-2.7,1.4c-1.1,0.1-3.3-2.8-3.3-2.8l0,0c0.1,0,0.6,0.1,2.6,1.8
							c1,0.9,2.8-1.2,2.8-1.2S429,313.6,429.2,314.1z"/>
						<path class="st9" d="M428.6,321.8h-2.5c-0.8-0.1-1.5-0.4-2.3-0.5c-1.3-0.2-1.9,0.4-2,0.5c0,0,0,0,0,0H411
							c-0.3-0.4,0-1.3,0.2-1.9c0.3-0.3,0.4,1.3,0.6,1.5c0.2,0.2,8.7,0.1,9.2-0.3c0.5-0.4,2-1,4-0.5c1.8,0.4,4.4-0.7,5.1-1
							c0.2,0.7,0.5,1.3,0.5,1.3S430.8,321.5,428.6,321.8z"/>
					</g>
					<path class="st13" d="M433.9,213.9c-2.7-0.9-6.1-3.3-10.2-8.6c-10.9-14.1-0.9-30.6,0.4-30.9c1.3-0.3,3.9,10.7,3.9,10.7
						C429.7,196.5,433.6,208.7,433.9,213.9z"/>
					<path class="st3" d="M399.7,152.5c0,0-7.5,3.8-9.9,18.9c0,0,2.4,3.3,5.9,4.3c0.5,0.1,1,0.2,1.5,0.3
						C401.4,176.2,399.7,152.5,399.7,152.5z"/>
					<path class="st7" d="M371.3,162.8c0,0,2.3-3.5,2.9-3.3c0.8,0.3-2.1,4.8-2.1,4.8s2.1-3.4,2.5-3.1c0.8,0.6-0.5,2.7-1.7,4.3
						c0,0,2.2-2,2.2-1.6c0.2,1.2-2.4,4.3-2.4,4.3l-1.5-3.3V162.8z"/>
					<path class="st7" d="M369.6,166.1c0.1-0.4,0.7-8.9,0.9-8.1c0.2,0.8,0.8,5.2,0.8,5.2L369.6,166.1z"/>
				</g>
			</g>
			<path class="st14" d="M407.7,139.3c0,0-0.2,0.9-2.4,0.7c0,0-1.8-0.1-1.8-1.1C403.5,138.9,405.3,138.2,407.7,139.3z"/>
		</g>
		<path class="st7" d="M446.6,217.1c0,0,4.3,2.9,5,4.1c0.7,1.2,2.2,5.7,2.2,5.7s-1.1,0.2-2.2-1.8c-1.1-1.9-4.7-1.8-6-2.8
			c-1.2-1-2.6-4.1-2.6-4.1L446.6,217.1z"/>
		<path class="st7" d="M443.5,219.1c0,0,0.7,3.4,1.6,4.4c0.9,1,2.1,2.6,2.6,2.2c0.5-0.4-0.6-4.1-0.6-4.1L443.5,219.1z"/>
		<path class="st7" d="M451,221.6c0.1,0.2,3.9,4.2,3.9,4.2s-1.4,0.6-1.8,0C452.8,225.2,451,221.6,451,221.6z"/>
	</g>
	<g>
		<path class="st14" d="M193.5,187h-6.2v-15.9h-16V187h-6.2v-35.8h6.2v14.9h16v-14.9h6.2V187z"/>
		<path class="st14" d="M226.8,171h-14.7v11h17.2v5h-23.4v-35.8h23.2v5h-17v9.9h14.7V171z"/>
		<path class="st14" d="M245.6,182h16.2v5h-22.5v-35.8h6.2V182z"/>
		<path class="st14" d="M277.9,182h16.2v5h-22.5v-35.8h6.2V182z"/>
		<path class="st14" d="M330.9,170.1c0,2.7-0.4,5.2-1.1,7.3c-0.7,2.2-1.7,4-3,5.5c-1.3,1.5-2.9,2.6-4.7,3.5c-1.8,0.8-3.8,1.2-6,1.2
			c-2.2,0-4.2-0.4-6-1.2c-1.8-0.8-3.4-2-4.7-3.5c-1.3-1.5-2.3-3.3-3.1-5.5c-0.7-2.2-1.1-4.6-1.1-7.3v-1.8c0-2.7,0.4-5.2,1.1-7.3
			c0.7-2.2,1.7-4,3-5.5c1.3-1.5,2.9-2.7,4.7-3.5c1.8-0.8,3.8-1.2,6-1.2c2.2,0,4.2,0.4,6.1,1.2c1.8,0.8,3.4,2,4.7,3.5
			c1.3,1.5,2.3,3.3,3,5.5c0.7,2.2,1.1,4.6,1.1,7.3V170.1z M324.7,168.2c0-2-0.2-3.8-0.6-5.3c-0.4-1.5-0.9-2.8-1.7-3.8
			c-0.7-1-1.6-1.8-2.7-2.3c-1.1-0.5-2.3-0.8-3.6-0.8c-1.3,0-2.5,0.3-3.6,0.8c-1.1,0.5-2,1.3-2.7,2.3c-0.7,1-1.3,2.3-1.7,3.8
			c-0.4,1.5-0.6,3.3-0.6,5.3v1.9c0,2,0.2,3.8,0.6,5.3c0.4,1.5,1,2.8,1.7,3.9c0.8,1,1.7,1.8,2.7,2.4c1.1,0.5,2.3,0.8,3.6,0.8
			c2.8,0,4.9-1,6.4-3.1c1.5-2.1,2.2-5.2,2.2-9.2V168.2z"/>
	</g>
	<g>
		<g>
			<path class="st5" d="M217.2,292.7h-42.9c-9.4,0-17.1-7.7-17.1-17.1v0c0-9.4,7.7-17.1,17.1-17.1h42.9c9.4,0,17.1,7.7,17.1,17.1v0
				C234.3,285,226.6,292.7,217.2,292.7z"/>
			<polygon class="st5" points="227.6,264.9 244.1,254 231.6,284.3 			"/>
		</g>
		<g>
			<path class="st13" d="M180.4,282.1h-2.5v-6.3h-6.3v6.3h-2.5v-14.2h2.5v5.9h6.3v-5.9h2.5V282.1z"/>
			<path class="st13" d="M191.3,282.1c-0.1-0.1-0.1-0.3-0.2-0.4c0-0.2-0.1-0.4-0.1-0.5c-0.2,0.2-0.3,0.3-0.5,0.5
				c-0.2,0.1-0.4,0.3-0.6,0.4c-0.2,0.1-0.5,0.2-0.7,0.3c-0.3,0.1-0.6,0.1-0.9,0.1c-0.5,0-1-0.1-1.5-0.2c-0.4-0.2-0.8-0.4-1.1-0.7
				c-0.3-0.3-0.6-0.6-0.7-1c-0.2-0.4-0.3-0.8-0.3-1.2c0-0.6,0.1-1.1,0.3-1.5c0.2-0.4,0.5-0.8,0.9-1.1c0.4-0.3,0.9-0.5,1.5-0.7
				c0.6-0.2,1.3-0.2,2-0.2h1.5V275c0-0.5-0.2-1-0.5-1.3c-0.3-0.3-0.8-0.5-1.4-0.5c-0.3,0-0.5,0-0.8,0.1c-0.2,0.1-0.4,0.2-0.6,0.3
				c-0.2,0.1-0.3,0.3-0.4,0.5c-0.1,0.2-0.1,0.4-0.1,0.6h-2.4c0-0.4,0.1-0.8,0.3-1.2c0.2-0.4,0.5-0.7,0.9-1c0.4-0.3,0.8-0.5,1.4-0.7
				c0.5-0.2,1.1-0.3,1.8-0.3c0.6,0,1.1,0.1,1.6,0.2c0.5,0.2,0.9,0.4,1.3,0.7c0.4,0.3,0.6,0.7,0.8,1.1c0.2,0.5,0.3,1,0.3,1.6v4.7
				c0,0.9,0.1,1.7,0.4,2.3v0.2H191.3z M188.7,280.4c0.3,0,0.5,0,0.8-0.1c0.2-0.1,0.5-0.2,0.6-0.3c0.2-0.1,0.4-0.3,0.5-0.4
				c0.1-0.2,0.3-0.3,0.3-0.5v-2h-1.3c-0.9,0-1.5,0.2-2,0.5c-0.4,0.3-0.7,0.7-0.7,1.3c0,0.2,0,0.4,0.1,0.6c0.1,0.2,0.2,0.3,0.3,0.5
				c0.1,0.1,0.3,0.2,0.5,0.3C188.2,280.4,188.5,280.4,188.7,280.4z"/>
			<path class="st13" d="M200.3,282.1H198v-15h2.4V282.1z"/>
			<path class="st13" d="M207.4,282.1H205v-15h2.4V282.1z"/>
			<path class="st13" d="M211.5,276.8c0-0.8,0.1-1.5,0.3-2.1c0.2-0.7,0.5-1.2,1-1.7c0.4-0.5,0.9-0.9,1.5-1.1
				c0.6-0.3,1.3-0.4,2.1-0.4c0.8,0,1.5,0.1,2.1,0.4c0.6,0.3,1.1,0.6,1.5,1.1c0.4,0.5,0.7,1,1,1.7c0.2,0.7,0.3,1.4,0.3,2.1v0.2
				c0,0.8-0.1,1.5-0.3,2.1c-0.2,0.7-0.5,1.2-1,1.7c-0.4,0.5-0.9,0.9-1.5,1.1c-0.6,0.3-1.3,0.4-2.1,0.4c-0.8,0-1.5-0.1-2.1-0.4
				c-0.6-0.3-1.1-0.6-1.5-1.1c-0.4-0.5-0.7-1-1-1.7c-0.2-0.7-0.3-1.4-0.3-2.1V276.8z M213.9,277c0,0.5,0,0.9,0.1,1.3
				c0.1,0.4,0.2,0.8,0.5,1.1c0.2,0.3,0.5,0.6,0.8,0.7c0.3,0.2,0.7,0.3,1.1,0.3c0.4,0,0.8-0.1,1.1-0.3c0.3-0.2,0.6-0.4,0.8-0.7
				c0.2-0.3,0.4-0.7,0.5-1.1c0.1-0.4,0.2-0.9,0.2-1.3v-0.2c0-0.5-0.1-0.9-0.2-1.3c-0.1-0.4-0.3-0.8-0.5-1.1
				c-0.2-0.3-0.5-0.6-0.8-0.8c-0.3-0.2-0.7-0.3-1.1-0.3c-0.4,0-0.8,0.1-1.1,0.3c-0.3,0.2-0.6,0.4-0.8,0.8c-0.2,0.3-0.4,0.7-0.5,1.1
				c-0.1,0.4-0.1,0.9-0.1,1.3V277z"/>
		</g>
	</g>
	<g>
		<path class="st17" d="M361.7,64.9V51.7h4.5c0.7,0,1.4,0.1,1.9,0.2c0.6,0.1,1.1,0.4,1.4,0.7c0.4,0.3,0.7,0.7,0.9,1.1
			c0.2,0.5,0.3,1,0.3,1.6c0,0.6-0.2,1.2-0.5,1.6c-0.3,0.5-0.8,0.9-1.4,1.1c0.4,0.1,0.7,0.3,1,0.5c0.3,0.2,0.5,0.4,0.7,0.7
			c0.2,0.3,0.3,0.6,0.4,0.9c0.1,0.3,0.1,0.7,0.1,1c0,0.6-0.1,1.2-0.3,1.7c-0.2,0.5-0.5,0.9-0.9,1.2c-0.4,0.3-0.9,0.6-1.4,0.7
			c-0.6,0.2-1.2,0.2-1.9,0.2H361.7z M364,57.3h2.3c0.7,0,1.3-0.2,1.7-0.5c0.4-0.3,0.6-0.8,0.6-1.4c0-0.7-0.2-1.1-0.6-1.4
			c-0.4-0.3-1-0.4-1.7-0.4H364V57.3z M364,59v4.1h2.6c0.4,0,0.7,0,1-0.1c0.3-0.1,0.5-0.2,0.7-0.4c0.2-0.2,0.3-0.4,0.4-0.6
			c0.1-0.2,0.1-0.5,0.1-0.8c0-0.7-0.2-1.2-0.5-1.5c-0.3-0.4-0.9-0.6-1.7-0.6H364z"/>
		<path class="st17" d="M385.9,58.7c0,1-0.1,1.9-0.4,2.7c-0.3,0.8-0.6,1.5-1.1,2c-0.5,0.6-1.1,1-1.7,1.3c-0.7,0.3-1.4,0.4-2.2,0.4
			c-0.8,0-1.6-0.1-2.2-0.4c-0.7-0.3-1.3-0.7-1.7-1.3c-0.5-0.6-0.9-1.2-1.1-2c-0.3-0.8-0.4-1.7-0.4-2.7V58c0-1,0.1-1.9,0.4-2.7
			c0.3-0.8,0.6-1.5,1.1-2c0.5-0.6,1.1-1,1.7-1.3c0.7-0.3,1.4-0.4,2.2-0.4c0.8,0,1.6,0.1,2.2,0.4c0.7,0.3,1.3,0.7,1.7,1.3
			c0.5,0.6,0.9,1.2,1.1,2c0.3,0.8,0.4,1.7,0.4,2.7V58.7z M383.6,58c0-0.7-0.1-1.4-0.2-2c-0.1-0.6-0.4-1-0.6-1.4
			c-0.3-0.4-0.6-0.7-1-0.9c-0.4-0.2-0.8-0.3-1.4-0.3c-0.5,0-0.9,0.1-1.3,0.3c-0.4,0.2-0.7,0.5-1,0.9c-0.3,0.4-0.5,0.9-0.6,1.4
			c-0.1,0.6-0.2,1.2-0.2,2v0.7c0,0.7,0.1,1.4,0.2,2c0.1,0.6,0.4,1,0.6,1.4c0.3,0.4,0.6,0.7,1,0.9c0.4,0.2,0.8,0.3,1.3,0.3
			c1,0,1.8-0.4,2.4-1.2c0.5-0.8,0.8-1.9,0.8-3.4V58z"/>
		<path class="st17" d="M400.5,64.9h-2.3l-5.9-9.4v9.4H390V51.7h2.3l5.9,9.4v-9.4h2.3V64.9z"/>
		<path class="st17" d="M410.5,51.7h2.3V61c0,0.7-0.1,1.2-0.3,1.8c-0.2,0.5-0.5,0.9-0.9,1.3c-0.4,0.4-0.8,0.6-1.4,0.8
			c-0.5,0.2-1.1,0.3-1.7,0.3c-0.6,0-1.2-0.1-1.7-0.2c-0.5-0.2-1-0.4-1.4-0.7c-0.4-0.3-0.7-0.7-0.9-1.2c-0.2-0.5-0.3-1.1-0.3-1.8h2.3
			c0,0.4,0.1,0.7,0.2,1c0.1,0.3,0.2,0.5,0.4,0.7c0.2,0.2,0.4,0.3,0.6,0.4c0.2,0.1,0.5,0.1,0.8,0.1c0.3,0,0.6,0,0.8-0.1
			c0.2-0.1,0.5-0.2,0.6-0.4c0.2-0.2,0.3-0.4,0.4-0.7c0.1-0.3,0.2-0.6,0.2-1V51.7z"/>
		<path class="st17" d="M427.9,58.7c0,1-0.1,1.9-0.4,2.7c-0.3,0.8-0.6,1.5-1.1,2c-0.5,0.6-1.1,1-1.7,1.3c-0.7,0.3-1.4,0.4-2.2,0.4
			c-0.8,0-1.6-0.1-2.2-0.4c-0.7-0.3-1.3-0.7-1.7-1.3c-0.5-0.6-0.9-1.2-1.1-2c-0.3-0.8-0.4-1.7-0.4-2.7V58c0-1,0.1-1.9,0.4-2.7
			c0.3-0.8,0.6-1.5,1.1-2c0.5-0.6,1.1-1,1.7-1.3c0.7-0.3,1.4-0.4,2.2-0.4c0.8,0,1.6,0.1,2.2,0.4c0.7,0.3,1.3,0.7,1.7,1.3
			c0.5,0.6,0.9,1.2,1.1,2s0.4,1.7,0.4,2.7V58.7z M425.6,58c0-0.7-0.1-1.4-0.2-2c-0.1-0.6-0.4-1-0.6-1.4c-0.3-0.4-0.6-0.7-1-0.9
			c-0.4-0.2-0.8-0.3-1.4-0.3c-0.5,0-0.9,0.1-1.3,0.3c-0.4,0.2-0.7,0.5-1,0.9c-0.3,0.4-0.5,0.9-0.6,1.4c-0.1,0.6-0.2,1.2-0.2,2v0.7
			c0,0.7,0.1,1.4,0.2,2c0.1,0.6,0.4,1,0.6,1.4c0.3,0.4,0.6,0.7,1,0.9c0.4,0.2,0.8,0.3,1.3,0.3c1,0,1.8-0.4,2.4-1.2
			c0.5-0.8,0.8-1.9,0.8-3.4V58z"/>
		<path class="st17" d="M441.7,51.7v8.9c0,0.8-0.1,1.4-0.4,2c-0.3,0.6-0.6,1-1.1,1.4c-0.4,0.4-1,0.7-1.6,0.9
			c-0.6,0.2-1.2,0.3-1.9,0.3c-0.7,0-1.4-0.1-2-0.3c-0.6-0.2-1.1-0.5-1.6-0.9c-0.4-0.4-0.8-0.9-1-1.4c-0.2-0.6-0.4-1.2-0.4-2v-8.9
			h2.3v8.9c0,0.5,0.1,0.9,0.2,1.2c0.1,0.3,0.3,0.6,0.5,0.9c0.2,0.2,0.5,0.4,0.8,0.5c0.3,0.1,0.7,0.2,1.1,0.2s0.8-0.1,1.1-0.2
			c0.3-0.1,0.6-0.3,0.8-0.5c0.2-0.2,0.4-0.5,0.5-0.9c0.1-0.3,0.2-0.8,0.2-1.2v-8.9H441.7z"/>
		<path class="st17" d="M450.9,59.8h-2.6v5.1H446V51.7h4.7c0.8,0,1.4,0.1,2,0.3c0.6,0.2,1.1,0.4,1.5,0.8c0.4,0.3,0.7,0.8,0.9,1.3
			c0.2,0.5,0.3,1.1,0.3,1.7c0,0.9-0.2,1.6-0.6,2.2c-0.4,0.6-1,1.1-1.8,1.4l3,5.5v0.1h-2.5L450.9,59.8z M448.3,58h2.4
			c0.4,0,0.8-0.1,1.1-0.2c0.3-0.1,0.6-0.3,0.8-0.5c0.2-0.2,0.4-0.4,0.5-0.7c0.1-0.3,0.2-0.6,0.2-0.9c0-0.3,0-0.6-0.1-0.9
			c-0.1-0.3-0.2-0.5-0.4-0.7c-0.2-0.2-0.5-0.3-0.8-0.5c-0.3-0.1-0.7-0.2-1.1-0.2h-2.4V58z"/>
	</g>
	<g>
		<path class="st17" d="M82.6,37.2c-0.9,1.6-1.9,3.2-3,4.4c-0.3-0.4-0.9-1.1-1.2-1.5c2.7-3.2,5.2-8.6,6.9-13.9l2.4,0.7
			c-0.1,0.3-0.4,0.3-0.7,0.3c-0.8,2.3-1.7,4.6-2.7,6.7l0.8,0.2c-0.1,0.2-0.2,0.3-0.6,0.3v18.1h-1.9V37.2z M102.1,37.9
			c0.2-1.1,0.5-2.6,0.8-4.2h-5.7v16.6c0,2-0.7,2.4-4.7,2.4c-0.1-0.6-0.4-1.4-0.7-2c0.7,0,1.4,0,1.9,0h1.1c0.4,0,0.5-0.1,0.5-0.5
			V33.7h-4.6c-0.9,2.1-1.8,4-2.9,5.4c-0.3-0.3-1-0.9-1.5-1.2c2-2.6,3.7-7.1,4.7-11.6l2.4,0.6c-0.1,0.2-0.3,0.3-0.6,0.3
			c-0.4,1.6-0.8,3.2-1.4,4.7H104l1,0c0,0.5-0.7,4.2-1.3,6.3L102.1,37.9z M93,38.8c-0.1,0.2-0.3,0.3-0.6,0.3
			c-0.9,3.5-2.5,7.2-4.3,9.5c-0.4-0.3-1.1-0.7-1.5-1c1.7-2.2,3.2-5.8,4.1-9.5L93,38.8z M103.3,48.4c-0.5-2.7-2.2-6.8-3.9-9.8
			l1.7-0.6c1.8,3,3.5,7.1,4,9.7L103.3,48.4z"/>
		<path class="st17" d="M119.8,32.2l1.1,0.3l-0.2,0.4c-0.4,5-1.3,9.1-2.7,12.2c1.4,1.1,2.6,2.1,3.4,3.1l-1.2,1.6
			c-0.7-0.9-1.8-1.9-3-3c-1.5,2.6-3.4,4.6-5.6,5.9c-0.3-0.5-0.8-1.2-1.2-1.6c2.1-1.1,3.9-3,5.3-5.5c-1.1-0.8-2.2-1.5-3.2-2.2
			l-0.3,1.3l-1.6-0.9c0.7-2.5,1.6-6.1,2.4-9.8H110v-1.8h3.2c0.5-2.1,0.9-4.2,1.2-6l2.3,0.3c0,0.2-0.2,0.3-0.6,0.3
			c-0.3,1.6-0.7,3.5-1.1,5.4h4.4L119.8,32.2z M114.6,34.1c-0.6,2.6-1.3,5.3-1.8,7.7c1.2,0.7,2.4,1.5,3.6,2.2c1.1-2.6,2-5.9,2.4-9.9
			H114.6z M136.3,38.9v1.8h-6.9v9.4c0,2.2-0.9,2.5-5.9,2.5c-0.1-0.5-0.4-1.3-0.7-1.9c1.4,0,2.6,0.1,3.4,0.1c1,0,1.3,0,1.3-0.6v-9.4
			h-7v-1.8h7v-4.8l0.9,0.1c1.5-1.3,3-3,4.2-4.6h-10.9v-1.8h12.4l0.4-0.1l1.5,0.9c-0.1,0.1-0.3,0.2-0.5,0.3c-1.5,2.1-3.9,4.8-6.1,6.6
			v3.5H136.3z"/>
	</g>
	<g>
		<g>
			<path class="st4" d="M470.8,148.4c-7.5,6-18.5,4.7-24.5-2.8c-6-7.5-4.7-18.5,2.8-24.5c7.5-6,18.5-4.7,24.5,2.8
				C479.5,131.4,478.3,142.4,470.8,148.4z M450.6,123.1c-6.4,5.1-7.5,14.5-2.4,20.9c5.1,6.4,14.5,7.5,20.9,2.4
				c6.4-5.1,7.5-14.5,2.4-20.9C466.4,119.1,457,118,450.6,123.1z"/>
		</g>
		<g>
			<path class="st4" d="M489.3,171.7c-0.7,0.5-1.6,0.4-2.2-0.2l-18.1-22.7c-0.5-0.7-0.4-1.6,0.2-2.2c0.7-0.5,1.6-0.4,2.2,0.2
				l18.1,22.7C490.1,170.2,490,171.2,489.3,171.7z"/>
		</g>
	</g>
	<g>
		<g>
			<rect x="203.3" y="240.3" class="st13" width="5.4" height="9.7"/>
			<polygon class="st13" points="200.2,240.3 211.5,240.3 206.1,232 			"/>
		</g>
		<g>
			
				<rect x="189.8" y="232" transform="matrix(-1 -1.224647e-16 1.224647e-16 -1 385.073 473.7028)" class="st14" width="5.4" height="9.7"/>
			<polygon class="st14" points="198.4,241.7 187.1,241.7 192.5,250 			"/>
		</g>
	</g>
	<g>
		<g>
			
				<rect x="308.6" y="60.5" transform="matrix(-1.836970e-16 1 -1 -1.836970e-16 375.2863 -246.3295)" class="st13" width="4.4" height="7.9"/>
			<polygon class="st13" points="314.8,59.7 314.8,68.9 321.5,64.5 			"/>
		</g>
		<g>
			
				<rect x="315.3" y="49.5" transform="matrix(6.123234e-17 -1 1 6.123234e-17 264.0804 371.0181)" class="st2" width="4.4" height="7.9"/>
			<polygon class="st2" points="313.6,58.2 313.6,49 306.9,53.5 			"/>
		</g>
	</g>
</g>
</svg>
